# 3ds Max Wavefront OBJ Exporter v0.97b - (c)2007 guruware
# File Created: 27.03.2022 03:21:58

mtllib arbol.mtl

#
# object pCone015
#

v  0.7713 0.0000 -0.0000
v  0.6240 0.0000 0.4533
v  0.2383 0.0000 0.7335
v  0.2383 0.0000 -0.7335
v  -0.2383 0.0000 0.7335
v  -0.6240 0.0000 0.4533
v  -0.7713 0.0000 -0.0000
v  -0.6240 0.0000 -0.4534
v  -0.2383 0.0000 -0.7335
v  0.6240 0.0000 -0.4534
v  3.8264 8.4986 -2.7800
v  1.4615 8.4986 -4.4982
v  0.0000 15.7297 -0.0000
v  -1.4615 8.4986 -4.4982
v  -3.8264 8.4986 -2.7800
v  -4.7297 8.4986 -0.0000
v  -3.8264 8.4986 2.7800
v  -1.4615 8.4986 4.4982
v  1.4616 8.4986 4.4982
v  3.8264 8.4986 2.7800
v  4.7297 8.4986 -0.0000
v  0.7713 8.1088 -0.0000
v  0.6240 8.1088 -0.4534
v  0.6240 8.1088 0.4533
v  0.2383 8.1088 0.7335
v  -0.2383 8.1088 0.7335
v  -0.6240 8.1088 0.4533
v  -0.7713 8.1088 -0.0000
v  -0.6240 8.1088 -0.4534
v  -0.2383 8.1088 -0.7335
v  0.2383 8.1088 -0.7335
# 31 vertices

vn 0.0000 -1.0000 0.0000
vn 0.5308 0.4294 -0.7306
vn 0.0000 0.4294 -0.9031
vn -0.5308 0.4294 -0.7306
vn -0.8589 0.4294 -0.2791
vn -0.8589 0.4294 0.2791
vn -0.5308 0.4294 0.7306
vn 0.0000 0.4294 0.9031
vn 0.5308 0.4294 0.7306
vn 0.8589 0.4294 0.2791
vn 0.8589 0.4294 -0.2791
vn 0.1277 -0.9909 -0.0415
vn 0.1277 -0.9909 0.0415
vn 0.0789 -0.9909 0.1086
vn 0.0000 -0.9910 0.1342
vn -0.0789 -0.9909 0.1086
vn -0.1277 -0.9909 0.0415
vn -0.1277 -0.9909 -0.0415
vn -0.0789 -0.9909 -0.1086
vn 0.0000 -0.9910 -0.1342
vn 0.0789 -0.9909 -0.1086
vn 0.9511 0.0000 -0.3090
vn 0.9511 0.0000 0.3090
vn 0.5878 0.0000 0.8090
vn 0.0000 0.0000 1.0000
vn -0.5878 0.0000 0.8090
vn -0.9511 0.0000 0.3090
vn -0.9511 0.0000 -0.3090
vn -0.5878 0.0000 -0.8090
vn 0.0000 0.0000 -1.0000
vn 0.5878 0.0000 -0.8090
# 31 vertex normals

vt 0.7500 0.2500 0.0000
vt 0.7023 0.3969 0.0000
vt 0.5773 0.4878 0.0000
vt 0.5773 0.0122 0.0000
vt 0.4227 0.4878 0.0000
vt 0.2977 0.3969 0.0000
vt 0.2500 0.2500 0.0000
vt 0.2977 0.1031 0.0000
vt 0.4227 0.0122 0.0000
vt 0.7023 0.1031 0.0000
vt 0.2500 0.5000 0.0000
vt 0.3000 0.5000 0.0000
vt 0.5000 1.0000 0.0000
vt 0.3500 0.5000 0.0000
vt 0.4000 0.5000 0.0000
vt 0.4500 0.5000 0.0000
vt 0.5000 0.5000 0.0000
vt 0.5500 0.5000 0.0000
vt 0.6000 0.5000 0.0000
vt 0.6500 0.5000 0.0000
vt 0.7000 0.5000 0.0000
vt 0.7500 0.5000 0.0000
# 22 texture coords

o pCone015
g pCone015
usemtl Arbol_initialShadingGroup
s off
f 1/1/1 2/2/1 3/3/1 4/4/1 
f 3/3/1 5/5/1 6/6/1 4/4/1 
f 6/6/1 7/7/1 8/8/1 4/4/1 
f 8/8/1 9/9/1 4/4/1 
f 10/10/1 1/1/1 4/4/1 
usemtl Arbol_lambert7SG
f 11/11/2 12/12/2 13/13/2 
f 12/12/3 14/14/3 13/13/3 
f 14/14/4 15/15/4 13/13/4 
f 15/15/5 16/16/5 13/13/5 
f 16/16/6 17/17/6 13/13/6 
f 17/17/7 18/18/7 13/13/7 
f 18/18/8 19/19/8 13/13/8 
f 19/19/9 20/20/9 13/13/9 
f 20/20/10 21/21/10 13/13/10 
f 21/21/11 11/22/11 13/13/11 
f 21/1/12 22/1/12 23/10/12 11/10/12 
usemtl Arbol_initialShadingGroup
f 20/2/13 24/2/13 22/1/13 21/1/13 
f 19/3/14 25/3/14 24/2/14 20/2/14 
f 18/5/15 26/5/15 25/3/15 19/3/15 
f 17/6/16 27/6/16 26/5/16 18/5/16 
f 16/7/17 28/7/17 27/6/17 17/6/17 
usemtl Arbol_lambert7SG
f 15/8/18 29/8/18 28/7/18 16/7/18 
f 14/9/19 30/9/19 29/8/19 15/8/19 
f 12/4/20 31/4/20 30/9/20 14/9/20 
f 11/10/21 23/10/21 31/4/21 12/4/21 
usemtl Arbol_lambert8SG
f 22/1/22 1/1/22 10/10/22 23/10/22 
f 24/2/23 2/2/23 1/1/23 22/1/23 
f 25/3/24 3/3/24 2/2/24 24/2/24 
f 26/5/25 5/5/25 3/3/25 25/3/25 
f 27/6/26 6/6/26 5/5/26 26/5/26 
f 28/7/27 7/7/27 6/6/27 27/6/27 
f 29/8/28 8/8/28 7/7/28 28/7/28 
f 30/9/29 9/9/29 8/8/29 29/8/29 
f 31/4/30 4/4/30 9/9/30 30/9/30 
f 23/10/31 10/10/31 4/4/31 31/4/31 
# 23 polygons - 12 triangles

