# This file uses centimeters as units for non-parametric coordinates.

mtllib velocidad.mtl
g default
v -7.655748 6.104284 -0.683081
v -7.837068 6.095720 -0.640441
v -8.041772 5.957577 0.047365
v -8.271582 5.928849 0.190400
v -7.759074 5.957577 0.047365
v -7.972128 5.928849 0.190400
v -8.048051 5.796795 0.847885
v -8.248509 5.775232 0.955246
v -7.621644 6.088784 -0.718275
v -7.841220 6.079711 -0.673102
v -8.015854 5.937607 0.034424
v -8.286798 5.907173 0.185954
v -7.743855 5.937607 0.034424
v -7.969563 5.907173 0.185954
v -8.046890 5.770188 0.867988
v -8.259253 5.747345 0.981725
v -7.621644 5.972465 -0.741638
v -7.841220 5.963392 -0.696464
v -8.015854 5.821288 0.011062
v -8.286798 5.790854 0.162592
v -7.743855 5.821288 0.011062
v -7.969563 5.790854 0.162592
v -8.046890 5.653870 0.844626
v -8.259253 5.631026 0.958363
v -7.658296 5.909804 -0.709789
v -7.835468 5.901435 -0.668124
v -8.041166 5.764817 0.012090
v -8.265720 5.736746 0.151854
v -7.764935 5.764817 0.012090
v -7.973117 5.736746 0.151854
v -8.048499 5.606591 0.799884
v -8.244372 5.585521 0.904789
v -7.990252 5.920390 0.232514
v -7.778216 5.948539 0.092364
v -7.764134 5.928032 0.082094
v -7.764134 5.811714 0.058732
v -7.783639 5.755986 0.056059
v -7.990825 5.728481 0.193003
v -7.988762 5.781894 0.207205
v -7.988762 5.898212 0.230567
v -8.229745 5.928849 0.190400
v -8.002278 5.957577 0.047365
v -8.001503 5.937607 0.034424
v -8.001503 5.821288 0.011062
v -8.002576 5.764817 0.012090
v -8.224841 5.736746 0.151854
v -8.242479 5.790854 0.162592
v -8.242479 5.907173 0.185954
v -8.250518 5.939634 0.136700
v -8.026190 5.966083 0.005013
v -7.999347 5.946618 -0.010444
v -7.999347 5.830300 -0.033806
v -8.025941 5.773129 -0.029294
v -8.245139 5.747285 0.099381
v -8.264485 5.802280 0.105702
v -8.264485 5.918599 0.129064
v -8.239939 5.779231 0.935334
v -8.039000 5.801068 0.826609
v -8.037301 5.774716 0.845448
v -8.037301 5.658397 0.822086
v -8.039654 5.610767 0.779093
v -8.235998 5.589429 0.885332
v -8.250174 5.635263 0.937268
v -8.250174 5.751582 0.960630
v -7.853440 6.089539 -0.609665
v -7.670418 6.098811 -0.655833
v -7.636601 6.083154 -0.690245
v -7.636601 5.966835 -0.713607
v -7.672854 5.904391 -0.682841
v -7.851692 5.895331 -0.637729
v -7.857981 5.957012 -0.664698
v -7.857981 6.073331 -0.641336
vt 0.142840 0.469744
vt 0.232032 0.477951
vt 0.240085 0.483874
vt 0.150056 0.474988
vt 0.332726 0.610329
vt 0.445888 0.636905
vt 0.425190 0.637858
vt 0.313299 0.610329
vt 0.193666 0.610329
vt 0.298468 0.637858
vt 0.307383 0.645964
vt 0.203083 0.618990
vt 0.094538 0.556769
vt 0.094538 0.614674
vt 0.094538 0.617983
vt 0.094538 0.556769
vt 0.094538 0.627949
vt 0.094538 0.617983
vt 0.094538 0.550017
vt 0.094538 0.550017
vt 0.094538 0.765195
vt 0.096222 0.765195
vt 0.094538 0.765195
vt 0.094538 0.760069
vt 0.094538 0.360258
vt 0.094538 0.357688
vt 0.094538 0.375644
vt 0.094538 0.375644
vt 0.096222 0.846393
vt 0.096222 0.860486
vt 0.094538 0.858631
vt 0.094538 0.850083
vt 0.094538 0.255963
vt 0.094538 0.255963
vt 0.094538 0.264393
vt 0.094538 0.264393
vt 0.094538 0.053730
vt 0.094538 0.127482
vt 0.094538 0.131312
vt 0.094538 0.053730
vt 0.068343 0.617983
vt 0.068343 0.556769
vt 0.068563 0.617983
vt 0.068343 0.550017
vt 0.068563 0.765195
vt 0.068563 0.760069
vt 0.068343 0.375644
vt 0.068343 0.360258
vt 0.068563 0.858631
vt 0.068563 0.850083
vt 0.068343 0.264393
vt 0.068343 0.255963
vt 0.068343 0.131312
vt 0.068343 0.053730
vt 0.056465 0.617983
vt 0.056465 0.556769
vt 0.056465 0.627257
vt 0.056465 0.550017
vt 0.058116 0.765195
vt 0.047396 0.760069
vt 0.056465 0.375644
vt 0.056465 0.360258
vt 0.058116 0.858631
vt 0.058116 0.850083
vt 0.056465 0.264393
vt 0.056465 0.255963
vt 0.056465 0.131312
vt 0.056465 0.053730
vt 0.908363 0.578046
vt 0.899162 0.586509
vt 0.797247 0.612866
vt 0.805958 0.604946
vt 0.772484 0.578046
vt 0.791467 0.578046
vt 0.682135 0.604946
vt 0.662009 0.604782
vt 0.960819 0.439110
vt 0.953657 0.444296
vt 0.865687 0.452979
vt 0.873667 0.447129
vt 0.430204 0.781232
vt 0.331362 0.760306
vt 0.096222 0.975078
vt 0.094538 0.975078
vt 0.068563 0.975078
vt 0.058116 0.975078
vt 0.773228 0.725667
vt 0.676646 0.746114
vt 0.068343 0.135553
vt 0.056465 0.135553
vt 0.094538 0.135553
vt 0.094538 0.136923
vt 0.325061 0.602178
vt 0.435408 0.627523
vt 0.094538 0.753993
vt 0.094538 0.760078
vt 0.068563 0.753993
vt 0.056465 0.753993
vt 0.672150 0.594847
vt 0.779974 0.570081
vt 0.068343 0.386432
vt 0.056465 0.386432
vt 0.094538 0.386432
vt 0.094538 0.388932
vt 0.434420 0.785064
vt 0.335814 0.764401
vt 0.094538 0.049692
vt 0.094538 0.049692
vt 0.068343 0.049692
vt 0.056465 0.049692
vt 0.768877 0.729668
vt 0.672527 0.749859
vn -0.000000 0.980421 0.196914
vn -0.000000 0.980421 0.196914
vn -0.000000 0.980421 0.196914
vn -0.000000 0.980421 0.196914
vn 0.000000 0.980421 0.196914
vn 0.000000 0.980421 0.196914
vn 0.000000 0.980421 0.196914
vn 0.000000 0.980421 0.196914
vn 0.000000 0.980421 0.196914
vn 0.000000 0.980421 0.196914
vn -0.000000 0.980421 0.196914
vn -0.000000 0.980421 0.196914
vn -0.140780 0.872758 -0.467412
vn -0.140780 0.872758 -0.467412
vn -0.140780 0.872758 -0.467412
vn -0.140780 0.872758 -0.467412
vn 0.723223 0.490518 0.486149
vn 0.700856 0.526406 0.481350
vn 0.704217 0.521201 0.482109
vn 0.723223 0.490518 0.486149
vn -0.726078 0.637963 -0.256542
vn -0.727937 0.635219 -0.258079
vn -0.704765 0.667887 -0.239236
vn -0.704765 0.667887 -0.239236
vn 0.000000 0.543821 -0.839201
vn 0.000000 0.543817 -0.839204
vn 0.000000 0.543817 -0.839204
vn 0.000000 0.543821 -0.839201
vn 0.000000 -0.200921 0.979607
vn 0.000000 -0.200919 0.979608
vn 0.000000 -0.200928 0.979606
vn 0.000000 -0.200928 0.979606
vn 0.831259 0.357758 0.425461
vn 0.854165 0.356817 0.378264
vn 0.852777 0.356906 0.381300
vn 0.831259 0.357758 0.425461
vn -0.941148 0.006838 -0.337925
vn -0.940887 0.006448 -0.338659
vn -0.916300 -0.026464 -0.399616
vn -0.916300 -0.026464 -0.399616
vn 0.336519 0.576977 0.744213
vn 0.336519 0.576977 0.744213
vn 0.336519 0.576977 0.744213
vn 0.336519 0.576977 0.744213
vn -0.205365 0.192717 -0.959524
vn -0.205365 0.192717 -0.959524
vn -0.205365 0.192717 -0.959524
vn -0.205365 0.192717 -0.959524
vn 0.886068 -0.091280 0.454479
vn 0.886068 -0.091280 0.454478
vn 0.886068 -0.091280 0.454478
vn 0.886068 -0.091280 0.454479
vn -0.888189 0.090478 -0.450483
vn -0.888196 0.090475 -0.450468
vn -0.888196 0.090475 -0.450468
vn -0.888189 0.090478 -0.450483
vn 0.000000 0.196914 -0.980421
vn 0.000000 0.196914 -0.980421
vn 0.000000 0.196914 -0.980421
vn 0.000000 0.196914 -0.980421
vn 0.000000 -0.196914 0.980421
vn 0.000000 -0.196914 0.980421
vn 0.000000 -0.196914 0.980421
vn 0.000000 -0.196914 0.980421
vn 0.922945 -0.075798 0.377395
vn 0.942458 -0.065833 0.327779
vn 0.942458 -0.065833 0.327779
vn 0.922945 -0.075798 0.377395
vn -0.942339 0.065899 -0.328107
vn -0.921350 0.076547 -0.381122
vn -0.921350 0.076547 -0.381122
vn -0.942339 0.065899 -0.328107
vn 0.479408 -0.172810 0.860409
vn 0.479408 -0.172810 0.860409
vn 0.479408 -0.172810 0.860409
vn 0.479408 -0.172810 0.860409
vn -0.180332 -0.391177 -0.902475
vn -0.180332 -0.391177 -0.902475
vn -0.180332 -0.391177 -0.902475
vn -0.180332 -0.391177 -0.902475
vn 0.863945 -0.301648 0.403246
vn 0.857535 -0.330830 0.393937
vn 0.856825 -0.333825 0.392953
vn 0.863945 -0.301648 0.403246
vn -0.826572 -0.271330 -0.493110
vn -0.816301 -0.300257 -0.493455
vn -0.816301 -0.300257 -0.493455
vn -0.827119 -0.269719 -0.493078
vn 0.000000 -0.018187 -0.999835
vn 0.000000 -0.018190 -0.999835
vn 0.000000 -0.018190 -0.999835
vn 0.000000 -0.018187 -0.999835
vn 0.000000 -0.194645 0.980874
vn 0.000000 -0.194660 0.980871
vn 0.000000 -0.194660 0.980871
vn 0.000000 -0.194643 0.980874
vn 0.891472 -0.327065 0.313538
vn 0.912083 -0.310954 0.267230
vn 0.912851 -0.310293 0.265369
vn 0.891472 -0.327065 0.313538
vn -0.942425 0.098044 -0.319723
vn -0.919780 0.133633 -0.368981
vn -0.919780 0.133633 -0.368981
vn -0.942290 0.098277 -0.320049
vn 0.417618 -0.632011 0.652807
vn 0.417618 -0.632011 0.652807
vn 0.417618 -0.632011 0.652807
vn 0.417618 -0.632011 0.652807
vn 0.000000 -0.980421 -0.196914
vn 0.000000 -0.980421 -0.196914
vn 0.000000 -0.980421 -0.196914
vn 0.000000 -0.980421 -0.196914
vn 0.000000 -0.980421 -0.196914
vn 0.000000 -0.980421 -0.196914
vn 0.000000 -0.980421 -0.196914
vn 0.000000 -0.980421 -0.196914
vn 0.000000 -0.980421 -0.196914
vn 0.000000 -0.980421 -0.196914
vn 0.000000 -0.980421 -0.196914
vn 0.000000 -0.980421 -0.196914
vn -0.000000 0.980421 0.196914
vn -0.000000 0.980421 0.196914
vn 0.854724 0.356780 0.377035
vn 0.853261 0.356875 0.380246
vn 0.943048 -0.065505 0.326142
vn 0.943048 -0.065505 0.326142
vn 0.912645 -0.310471 0.265871
vn 0.913434 -0.309789 0.263948
vn 0.000000 -0.980421 -0.196914
vn 0.000000 -0.980421 -0.196914
vn -0.942138 0.098541 -0.320414
vn -0.943377 0.096387 -0.317412
vn -0.942959 0.065554 -0.326391
vn -0.942959 0.065554 -0.326391
vn -0.939815 0.004857 -0.341650
vn -0.942229 0.008465 -0.334862
vn 0.000000 0.980421 0.196914
vn 0.000000 0.980421 0.196914
vn 0.000000 0.543816 -0.839204
vn 0.000000 0.543816 -0.839204
vn 0.000000 0.196914 -0.980421
vn 0.000000 0.196914 -0.980421
vn 0.000000 -0.018191 -0.999835
vn 0.000000 -0.018191 -0.999835
vn 0.000000 -0.980421 -0.196914
vn 0.000000 -0.980421 -0.196914
vn 0.000000 -0.194641 0.980875
vn 0.000000 -0.194641 0.980875
vn 0.000000 -0.196914 0.980421
vn 0.000000 -0.196914 0.980421
vn 0.000000 -0.200919 0.979608
vn 0.000000 -0.200919 0.979608
vn -0.000000 0.980421 0.196914
vn -0.000000 0.980421 0.196914
vn 0.000000 0.980421 0.196914
vn 0.000000 0.980421 0.196914
vn 0.700164 0.530028 0.478373
vn 0.698232 0.542156 0.467481
vn 0.676037 0.633730 0.375981
vn 0.676037 0.633730 0.375981
vn 0.889717 -0.089894 0.447575
vn 0.889717 -0.089894 0.447575
vn 0.940680 -0.066812 0.332651
vn 0.940680 -0.066812 0.332651
vn 0.860503 -0.340300 0.379119
vn 0.858139 -0.336508 0.387763
vn 0.885903 -0.392590 0.247081
vn 0.885903 -0.392590 0.247081
vn 0.000000 -0.980421 -0.196914
vn 0.000000 -0.980421 -0.196914
vn 0.000000 -0.980421 -0.196914
vn 0.000000 -0.980421 -0.196914
vn -0.878899 -0.263476 -0.397639
vn -0.831220 -0.268756 -0.486667
vn -0.830678 -0.268797 -0.487567
vn -0.878899 -0.263476 -0.397639
vn -0.933370 0.070675 -0.351888
vn -0.891487 0.089211 -0.444176
vn -0.891487 0.089211 -0.444176
vn -0.933370 0.070675 -0.351888
vn -0.784940 0.589913 -0.189398
vn -0.731689 0.632312 -0.254582
vn -0.732615 0.631663 -0.253532
vn -0.784940 0.589913 -0.189398
vn 0.000000 0.980421 0.196914
vn 0.000000 0.980421 0.196914
vn 0.831263 0.357745 0.425465
vn 0.831263 0.357745 0.425465
vn 0.922936 -0.075803 0.377417
vn 0.922936 -0.075803 0.377417
vn 0.891450 -0.327078 0.313588
vn 0.891449 -0.327078 0.313588
vn 0.000000 -0.980421 -0.196914
vn 0.000000 -0.980421 -0.196914
vn -0.919777 0.133661 -0.368977
vn -0.919777 0.133661 -0.368977
vn -0.921333 0.076555 -0.381163
vn -0.921333 0.076555 -0.381163
vn -0.916260 -0.026509 -0.399707
vn -0.916260 -0.026509 -0.399707
s 1
g polySurface8 pSphere3
usemtl lambert10SG
f 1/1/1 2/2/2 65/3/3 66/4/4
s 2
f 3/5/5 4/6/6 41/7/7 42/8/8
s 3
f 5/9/9 6/10/10 33/11/11 34/12/12
s off
f 2/13/13 1/14/14 9/15/15 10/16/16
s 4
f 1/14/17 66/17/18 67/18/19 9/15/20
s 5
f 72/19/21 65/20/22 2/13/23 10/16/24
s 6
f 3/21/25 42/22/26 43/23/27 11/24/28
s 7
f 48/25/29 41/26/30 4/27/31 12/28/32
s 8
f 5/29/33 34/30/34 35/31/35 13/32/36
s 9
f 40/33/37 33/34/38 6/35/39 14/36/40
s off
f 7/37/41 8/38/42 16/39/43 15/40/44
f 10/16/45 9/15/46 17/41/47 18/42/48
s 10
f 9/15/49 67/18/50 68/43/51 17/41/52
s 11
f 72/19/53 10/16/54 18/42/55 71/44/56
s 12
f 11/24/57 43/23/58 44/45/59 19/46/60
s 13
f 48/25/61 12/28/62 20/47/63 47/48/64
s 14
f 13/32/65 35/31/66 36/49/67 21/50/68
s 15
f 40/33/69 14/36/70 22/51/71 39/52/72
s off
f 15/40/73 16/39/74 24/53/75 23/54/76
f 18/42/77 17/41/78 25/55/79 26/56/80
s 16
f 17/41/81 68/43/82 69/57/83 25/55/84
s 17
f 71/44/85 18/42/86 26/56/87 70/58/88
s 18
f 19/46/89 44/45/90 45/59/91 27/60/92
s 19
f 47/48/93 20/47/94 28/61/95 46/62/96
s 20
f 21/50/97 36/49/98 37/63/99 29/64/100
s 21
f 39/52/101 22/51/102 30/65/103 38/66/104
s off
f 23/54/105 24/53/106 32/67/107 31/68/108
s 22
f 29/69/109 37/70/110 38/71/111 30/72/112
s 23
f 27/73/113 45/74/114 46/75/115 28/76/116
s 24
f 25/77/117 69/78/118 70/79/119 26/80/120
s 3
f 34/12/12 33/11/11 57/81/121 58/82/122
s 8
f 35/31/35 34/30/34 58/83/123 59/84/124
s 14
f 36/49/67 35/31/66 59/84/125 60/85/126
s 20
f 37/63/99 36/49/98 60/85/127 61/86/128
s 22
f 38/71/111 37/70/110 61/87/129 62/88/130
s 21
f 63/89/131 39/52/101 38/66/104 62/90/132
s 15
f 64/91/133 40/33/69 39/52/72 63/89/134
s 9
f 64/91/135 57/92/136 33/34/38 40/33/37
s 2
f 42/8/8 41/7/7 6/10/137 5/9/138
s 6
f 43/23/27 42/22/26 5/29/139 13/32/140
s 12
f 44/45/59 43/23/58 13/32/141 21/50/142
s 18
f 45/59/91 44/45/90 21/50/143 29/64/144
s 23
f 46/75/115 45/74/114 29/69/145 30/72/146
s 19
f 22/51/147 47/48/93 46/62/96 30/65/148
s 13
f 14/36/149 48/25/61 47/48/64 22/51/150
s 7
f 6/35/151 41/26/30 48/25/29 14/36/152
s 1
f 50/93/153 49/94/154 4/6/155 3/5/156
s 4
f 51/95/157 50/96/158 3/21/159 11/24/160
s 10
f 52/97/161 51/95/162 11/24/163 19/46/164
s 16
f 53/98/165 52/97/166 19/46/167 27/60/168
s 24
f 54/99/169 53/100/170 27/73/171 28/76/172
s 17
f 20/47/173 55/101/174 54/102/175 28/61/176
s 11
f 12/28/177 56/103/178 55/101/179 20/47/180
s 5
f 4/27/181 49/104/182 56/103/183 12/28/184
s 3
f 58/82/122 57/81/121 8/105/185 7/106/186
s 8
f 59/107/124 58/108/123 7/37/187 15/40/188
s 14
f 60/109/126 59/107/125 15/40/189 23/54/190
s 20
f 61/110/128 60/109/127 23/54/191 31/68/192
s 22
f 62/88/130 61/87/129 31/111/193 32/112/194
s 21
f 24/53/195 63/89/131 62/90/132 32/67/196
s 15
f 16/39/197 64/91/133 63/89/134 24/53/198
s 9
f 8/38/199 57/92/136 64/91/135 16/39/200
s 1
f 66/4/4 65/3/3 49/94/154 50/93/153
s 4
f 67/18/19 66/17/18 50/96/158 51/95/157
s 10
f 68/43/51 67/18/50 51/95/162 52/97/161
s 16
f 69/57/83 68/43/82 52/97/166 53/98/165
s 24
f 70/79/119 69/78/118 53/100/170 54/99/169
s 17
f 55/101/174 71/44/85 70/58/88 54/102/175
s 11
f 56/103/178 72/19/53 71/44/56 55/101/179
s 5
f 56/103/183 49/104/182 65/20/22 72/19/21
