# 3ds Max Wavefront OBJ Exporter v0.97b - (c)2007 guruware
# File Created: 18.03.2022 21:11:09

mtllib edificio4.mtl

#
# object ciudad_pCylinder32polySurface35
#

v  35.7847 9.6436 -19.6044
v  35.1158 9.6436 -19.6044
v  35.1158 5.7031 -19.6044
v  35.7847 5.7031 -19.6044
v  35.7847 9.6436 -20.0663
v  35.1158 9.6436 -20.0663
v  35.7847 5.7031 -20.0663
v  35.1158 0.3790 -20.0663
v  35.7847 0.3790 -20.0663
v  35.7847 0.3790 -19.6044
v  35.1158 0.3790 -19.6044
v  8.5453 5.7031 -19.6044
v  8.5453 9.6436 -19.6044
v  8.5453 9.6436 -20.0663
v  8.5453 5.7031 -20.0663
v  31.4242 0.3790 -20.0663
v  31.4242 5.7031 -20.0663
v  35.1158 5.7031 -20.0663
v  31.4242 0.3790 -19.6044
v  31.4242 11.0272 -19.6044
v  31.4242 5.7031 -19.6044
v  31.4242 11.0272 -20.0663
v  8.5453 0.3790 -19.6044
v  8.5453 0.3790 -20.0663
v  9.2745 0.3790 -20.0663
v  9.2745 0.3790 -19.6044
v  9.2745 5.7031 -19.6044
v  9.2745 9.6436 -19.6044
v  9.2745 9.6436 -20.0663
v  12.9661 5.7031 -19.6044
v  12.9661 11.0272 -19.6044
v  12.9661 0.3790 -20.0663
v  12.9661 0.3790 -19.6044
v  9.2745 5.7031 -20.0663
v  12.9661 5.7031 -20.0663
v  12.9661 11.0272 -20.0663
v  13.8890 6.1362 -19.6044
v  13.8890 11.3146 -19.6044
v  13.8890 11.3146 -20.0663
v  20.3493 11.4652 -19.6044
v  16.6577 12.1731 -19.6044
v  16.6577 5.7031 -19.6044
v  20.3493 0.3790 -19.6044
v  16.6577 0.3790 -20.0663
v  20.3493 0.3790 -20.0663
v  16.6577 0.3790 -19.6044
v  16.6577 5.7031 -20.0663
v  20.3493 11.4652 -20.0663
v  16.6577 12.1731 -20.0663
v  21.2723 11.5739 -19.6044
v  21.2723 0.3790 -19.6044
v  21.2723 11.5739 -20.0663
v  27.7326 5.7031 -19.6044
v  27.7326 12.1731 -19.6044
v  24.0409 13.0564 -19.6044
v  24.0409 0.3790 -19.6044
v  27.7326 0.3790 -20.0663
v  27.7326 0.3790 -19.6044
v  24.0409 0.3790 -20.0663
v  27.7326 5.7031 -20.0663
v  24.0409 13.0564 -20.0663
v  27.7326 12.1731 -20.0663
v  28.6555 6.1362 -19.6044
v  28.6555 11.8876 -19.6044
v  28.6555 11.8876 -20.0663
v  13.8890 6.1362 -20.0663
v  21.2723 0.3790 -20.0663
v  28.6555 6.1362 -20.0663
v  35.7847 8.4040 -25.2911
v  35.1158 8.4040 -25.2911
v  35.7847 4.4635 -25.2911
v  35.1158 0.3790 -25.2911
v  35.7847 0.3790 -25.2911
v  35.1158 4.4635 -25.2911
v  9.2745 5.7031 -25.2911
v  9.2745 0.3790 -25.2911
v  8.5453 0.3790 -25.2911
v  8.5453 8.4040 -25.2911
v  9.2745 8.4040 -25.2911
v  8.5453 5.7031 -25.2911
v  14.8119 6.2780 -20.0663
v  15.7349 6.1362 -20.0663
v  15.7349 6.1362 -19.6044
v  14.8119 6.2780 -19.6044
v  15.7349 11.8876 -19.6044
v  14.8119 11.6021 -19.6044
v  15.7349 11.8876 -20.0663
v  14.8119 11.6021 -20.0663
v  23.1181 13.1651 -19.6044
v  22.1951 13.2738 -19.6044
v  22.1951 0.3790 -19.6044
v  23.1181 0.3790 -19.6044
v  23.1181 13.1651 -20.0663
v  22.1951 13.2738 -20.0663
v  22.1951 0.3790 -20.0663
v  23.1181 0.3790 -20.0663
v  29.5784 6.2780 -19.6044
v  30.5013 6.1362 -19.6044
v  30.5013 11.3146 -19.6044
v  29.5784 11.6021 -19.6044
v  30.5013 11.3146 -20.0663
v  29.5784 11.6021 -20.0663
v  30.5013 6.1362 -20.0663
v  29.5784 6.2780 -20.0663
v  35.7847 9.6436 -30.9778
v  35.7847 5.7031 -30.9778
v  35.1158 5.7031 -30.9778
v  35.1158 9.6436 -30.9778
v  35.1158 9.6436 -30.5160
v  35.7847 9.6436 -30.5160
v  35.7847 5.7031 -30.5160
v  35.7847 0.3790 -30.9778
v  35.7847 0.3790 -30.5160
v  35.1158 0.3790 -30.5160
v  35.1158 0.3790 -30.9778
v  8.5453 9.6436 -30.9778
v  8.5453 5.7031 -30.9778
v  8.5453 5.7031 -30.5160
v  8.5453 9.6436 -30.5160
v  35.1158 5.7031 -30.5160
v  31.4242 5.7031 -30.5160
v  31.4242 0.3790 -30.5160
v  31.4242 0.3790 -30.9778
v  31.4242 11.0272 -30.9778
v  31.4242 5.7031 -30.9778
v  31.4242 11.0272 -30.5160
v  8.5453 0.3790 -30.5160
v  8.5453 0.3790 -30.9778
v  9.2745 0.3790 -30.9778
v  9.2745 0.3790 -30.5160
v  9.2745 9.6436 -30.9778
v  9.2745 5.7031 -30.9778
v  9.2745 9.6436 -30.5160
v  12.9661 11.0272 -30.9778
v  12.9661 5.7031 -30.9778
v  12.9661 0.3790 -30.9778
v  12.9661 0.3790 -30.5160
v  12.9661 5.7031 -30.5160
v  9.2745 5.7031 -30.5160
v  12.9661 11.0272 -30.5160
v  13.8890 11.0789 -30.9778
v  13.8890 6.1362 -30.9778
v  13.8890 11.0789 -30.5160
v  16.6577 12.1731 -30.9778
v  20.3493 13.0564 -30.9778
v  20.3493 5.7031 -30.9778
v  16.6577 5.7031 -30.9778
v  20.3493 0.3790 -30.9778
v  20.3493 0.3790 -30.5160
v  16.6577 0.3790 -30.5160
v  16.6577 0.3790 -30.9778
v  16.6577 5.7031 -30.5160
v  20.3493 5.7031 -30.5160
v  16.6577 12.1731 -30.5160
v  20.3493 13.0564 -30.5160
v  21.2723 13.1651 -30.9778
v  21.2723 6.1362 -30.9778
v  21.2723 13.1651 -30.5160
v  23.6154 12.1188 -30.9778
v  27.7326 12.1731 -30.9778
v  27.7326 5.7031 -30.9778
v  24.0409 5.7031 -30.9778
v  24.0409 0.3790 -30.9778
v  27.7326 0.3790 -30.9778
v  27.7326 0.3790 -30.5160
v  24.0409 0.3790 -30.5160
v  27.7326 5.7031 -30.5160
v  24.0409 5.7031 -30.5160
v  23.6154 12.1188 -30.5160
v  27.7326 12.1731 -30.5160
v  28.6555 11.8876 -30.9778
v  28.6555 6.1362 -30.9778
v  28.6555 11.8876 -30.5160
v  13.8890 6.1362 -30.5160
v  21.2723 6.1362 -30.5160
v  28.6555 6.1362 -30.5160
v  15.7349 6.1362 -30.9778
v  15.7349 6.1362 -30.5160
v  14.8119 6.2780 -30.5160
v  14.8119 6.2780 -30.9778
v  14.5479 11.6021 -30.9778
v  15.7349 11.2136 -30.9778
v  14.5479 11.6021 -30.5160
v  15.7349 11.2136 -30.5160
v  22.1951 6.2780 -30.9778
v  22.1951 13.2738 -30.9778
v  22.6925 12.2275 -30.9778
v  23.1181 6.1362 -30.9778
v  22.1951 13.2738 -30.5160
v  22.6925 12.2275 -30.5160
v  22.1951 6.2780 -30.5160
v  23.1181 6.1362 -30.5160
v  29.5784 6.2780 -30.9778
v  29.5784 11.6021 -30.9778
v  30.5013 11.3146 -30.9778
v  30.5013 6.1362 -30.9778
v  30.5013 11.3146 -30.5160
v  29.5784 11.6021 -30.5160
v  29.5784 6.2780 -30.5160
v  30.5013 6.1362 -30.5160
# 200 vertices

vn 0.0000 0.0000 1.0000
vn 0.0000 1.0000 0.0000
vn 1.0000 0.0000 0.0000
vn 0.0000 -1.0000 0.0000
vn -1.0000 0.0000 -0.0000
vn 0.0000 0.0000 -1.0000
vn -0.0000 0.0000 -1.0000
vn -0.0000 0.0000 1.0000
vn 0.3509 0.9364 0.0000
vn 0.3405 0.9402 0.0000
vn -0.3509 0.9364 -0.0000
vn -0.3405 0.9402 -0.0000
vn -0.2974 0.9547 -0.0000
vn 0.0912 0.9958 0.0000
vn 0.1288 0.9917 0.0000
vn -0.6999 0.7142 -0.0000
vn 0.2102 0.9777 0.0000
vn 0.2455 0.9694 0.0000
vn 0.2955 0.9553 0.0000
vn 0.0000 0.0000 0.0000
vn 0.0000 0.9730 -0.2308
vn -0.0000 -1.0000 0.0000
vn 0.4248 -0.9053 0.0000
vn 0.2974 -0.9548 0.0000
vn -0.2974 -0.9548 0.0000
vn -0.2955 0.9553 -0.0000
vn -0.2965 0.9550 -0.0000
vn 0.1170 0.9931 0.0000
vn -0.6530 0.7574 -0.0000
vn 0.2965 0.9550 0.0000
vn 0.2974 0.9548 0.0000
vn -0.4248 -0.9053 0.0000
vn 0.0000 1.0000 -0.0000
vn 0.3405 0.9403 0.0000
vn -0.2970 0.9549 -0.0000
vn -0.3416 0.9398 -0.0000
vn -0.3709 0.9287 -0.0000
vn -0.2102 0.9777 -0.0000
vn -0.1170 0.9931 -0.0000
vn 0.0108 0.9999 0.0000
vn 0.0458 0.9990 0.0000
vn 0.0000 0.9730 0.2308
vn 0.2974 -0.9547 0.0000
vn -0.2612 0.9653 -0.0000
vn -0.0728 0.9973 -0.0000
vn 0.5509 0.8345 0.0000
vn 0.6309 0.7758 0.0000
vn -0.2974 -0.9547 0.0000
# 48 vertex normals

vt 0.2925 0.5726 0.0000
vt 0.2985 0.5726 0.0000
vt 0.2985 0.4971 0.0000
vt 0.2925 0.4971 0.0000
vt 0.6258 0.2085 0.0000
vt 0.6294 0.2003 0.0000
vt 0.6296 0.2061 0.0000
vt 0.6295 0.2122 0.0000
vt 0.5346 0.0777 0.0000
vt 0.5291 0.0777 0.0000
vt 0.5291 0.1352 0.0000
vt 0.5346 0.1352 0.0000
vt 0.0231 0.0826 0.0000
vt 0.0000 0.0826 0.0000
vt 0.1352 0.1516 0.0000
vt 0.1352 0.2091 0.0000
vt 0.1297 0.2091 0.0000
vt 0.1297 0.1516 0.0000
vt 0.5368 0.2507 0.0000
vt 0.5369 0.3222 0.0000
vt 0.4872 0.3222 0.0000
vt 0.4872 0.2507 0.0000
vt 0.1508 0.0826 0.0000
vt 0.3320 0.5991 0.0000
vt 0.3320 0.4971 0.0000
vt 0.6818 0.2084 0.0000
vt 0.6805 0.2144 0.0000
vt 0.0000 0.0000 0.0000
vt 0.5393 0.5726 0.0000
vt 0.5393 0.4971 0.0000
vt 0.5327 0.4971 0.0000
vt 0.5327 0.5726 0.0000
vt 0.9913 0.2854 0.0000
vt 1.0000 0.2911 0.0000
vt 0.9966 0.2957 0.0000
vt 0.9890 0.2911 0.0000
vt 0.4992 0.4971 0.0000
vt 0.4992 0.5991 0.0000
vt 0.7842 0.2507 0.0000
vt 0.8338 0.2507 0.0000
vt 0.8339 0.3222 0.0000
vt 0.7843 0.3222 0.0000
vt 0.9395 0.2751 0.0000
vt 0.9411 0.2691 0.0000
vt 0.4909 0.5054 0.0000
vt 0.4909 0.6046 0.0000
vt 0.9271 0.2721 0.0000
vt 0.9285 0.2661 0.0000
vt 0.4323 0.6074 0.0000
vt 0.4658 0.6210 0.0000
vt 0.4658 0.4971 0.0000
vt 0.4323 0.3952 0.0000
vt 0.7351 0.2507 0.0000
vt 0.7351 0.3222 0.0000
vt 0.6855 0.3222 0.0000
vt 0.8895 0.2633 0.0000
vt 0.8409 0.2518 0.0000
vt 0.8423 0.2458 0.0000
vt 0.8910 0.2573 0.0000
vt 0.4240 0.6095 0.0000
vt 0.4240 0.3952 0.0000
vt 0.8303 0.2430 0.0000
vt 0.8289 0.2490 0.0000
vt 0.3654 0.4971 0.0000
vt 0.3654 0.6210 0.0000
vt 0.3989 0.6379 0.0000
vt 0.3989 0.3952 0.0000
vt 0.6361 0.3222 0.0000
vt 0.5864 0.3222 0.0000
vt 0.5864 0.2507 0.0000
vt 0.7811 0.2316 0.0000
vt 0.7797 0.2375 0.0000
vt 0.7306 0.2261 0.0000
vt 0.7320 0.2201 0.0000
vt 0.3571 0.5054 0.0000
vt 0.3571 0.6155 0.0000
vt 0.7180 0.2232 0.0000
vt 0.7194 0.2172 0.0000
vt 0.3654 0.3952 0.0000
vt 0.3320 0.3952 0.0000
vt 0.2985 0.3952 0.0000
vt 0.2925 0.3952 0.0000
vt 0.5291 0.0000 0.0000
vt 0.5346 0.0000 0.0000
vt 0.1297 0.0739 0.0000
vt 0.1352 0.0739 0.0000
vt 0.5393 0.3952 0.0000
vt 0.5327 0.3952 0.0000
vt 0.4992 0.3952 0.0000
vt 0.4658 0.3952 0.0000
vt 0.7844 0.3937 0.0000
vt 0.7720 0.3976 0.0000
vt 0.7721 0.3290 0.0000
vt 0.7354 0.4044 0.0000
vt 0.6858 0.4044 0.0000
vt 0.6720 0.4044 0.0000
vt 0.6732 0.3290 0.0000
vt 0.5870 0.4165 0.0000
vt 0.6381 0.4165 0.0000
vt 0.5736 0.4053 0.0000
vt 0.5741 0.3290 0.0000
vt 0.5366 0.3937 0.0000
vt 0.4872 0.3751 0.0000
vt 0.8339 0.3751 0.0000
vt 0.5583 0.1878 0.0000
vt 0.5605 0.1791 0.0000
vt 0.4670 0.0596 0.0000
vt 0.4670 0.1171 0.0000
vt 0.4170 0.3055 0.0000
vt 0.4170 0.2507 0.0000
vt 0.2001 0.1789 0.0000
vt 0.2649 0.1789 0.0000
vt 0.2649 0.1044 0.0000
vt 0.2001 0.1044 0.0000
vt 0.0595 0.0484 0.0000
vt 0.0000 0.0071 0.0000
vt 0.0063 0.0000 0.0000
vt 0.0634 0.0394 0.0000
vt 0.0676 0.0739 0.0000
vt 0.0676 0.1516 0.0000
vt 0.4670 0.0000 0.0000
vt 0.0676 0.1910 0.0000
vt 0.4170 0.3585 0.0000
vt 0.2001 0.2167 0.0000
vt 0.2649 0.2340 0.0000
vt 0.1070 0.0154 0.0000
vt 0.1070 0.0000 0.0000
vt 0.1833 0.0154 0.0000
vt 0.1833 0.0000 0.0000
vt 0.1827 0.0000 0.0000
vt 0.1827 0.0154 0.0000
vt 0.2591 0.0154 0.0000
vt 0.2591 0.0000 0.0000
vt 0.2402 0.0000 0.0000
vt 0.2402 0.0154 0.0000
vt 0.3743 0.0000 0.0000
vt 0.3648 0.0000 0.0000
vt 0.3648 0.0077 0.0000
vt 0.3743 0.0077 0.0000
vt 0.1638 0.0154 0.0000
vt 0.1638 0.0000 0.0000
vt 0.2212 0.0000 0.0000
vt 0.2023 0.0000 0.0000
vt 0.2023 0.0154 0.0000
vt 0.2212 0.0154 0.0000
vt 0.4825 0.5081 0.0000
vt 0.4742 0.5054 0.0000
vt 0.4742 0.6155 0.0000
vt 0.4825 0.6101 0.0000
vt 0.9021 0.2662 0.0000
vt 0.9035 0.2603 0.0000
vt 0.9160 0.2632 0.0000
vt 0.9146 0.2692 0.0000
vt 0.7595 0.4015 0.0000
vt 0.7471 0.4053 0.0000
vt 0.7473 0.3290 0.0000
vt 0.7597 0.3290 0.0000
vt 0.4073 0.6400 0.0000
vt 0.4156 0.6421 0.0000
vt 0.4156 0.3952 0.0000
vt 0.4073 0.3952 0.0000
vt 0.7918 0.2404 0.0000
vt 0.7932 0.2344 0.0000
vt 0.8052 0.2372 0.0000
vt 0.8038 0.2432 0.0000
vt 0.6608 0.3290 0.0000
vt 0.6600 0.4165 0.0000
vt 0.6492 0.4165 0.0000
vt 0.6485 0.3290 0.0000
vt 0.3552 0.0077 0.0000
vt 0.3552 0.0000 0.0000
vt 0.3457 0.0000 0.0000
vt 0.3457 0.0077 0.0000
vt 0.3487 0.5081 0.0000
vt 0.3404 0.5054 0.0000
vt 0.3404 0.6046 0.0000
vt 0.3487 0.6101 0.0000
vt 0.7055 0.2202 0.0000
vt 0.6930 0.2173 0.0000
vt 0.6944 0.2113 0.0000
vt 0.7069 0.2143 0.0000
vt 0.5613 0.4015 0.0000
vt 0.5489 0.3976 0.0000
vt 0.5491 0.3290 0.0000
vt 0.5616 0.3290 0.0000
vt 0.1259 0.0154 0.0000
vt 0.1448 0.0154 0.0000
vt 0.1448 0.0000 0.0000
vt 0.1259 0.0000 0.0000
vt 0.3361 0.0000 0.0000
vt 0.3361 0.0077 0.0000
vt 0.6723 0.1694 0.0000
vt 0.6723 0.0973 0.0000
vt 0.6786 0.0973 0.0000
vt 0.6786 0.1694 0.0000
vt 0.4866 0.1701 0.0000
vt 0.4897 0.1650 0.0000
vt 0.4890 0.1738 0.0000
vt 0.4849 0.1764 0.0000
vt 0.3994 0.1352 0.0000
vt 0.4049 0.1352 0.0000
vt 0.4049 0.0777 0.0000
vt 0.3994 0.0777 0.0000
vt 0.0000 0.2091 0.0000
vt 0.0000 0.1516 0.0000
vt 0.0055 0.1516 0.0000
vt 0.0055 0.2091 0.0000
vt 0.3468 0.3222 0.0000
vt 0.2972 0.3222 0.0000
vt 0.2972 0.2507 0.0000
vt 0.3468 0.2507 0.0000
vt 0.7136 0.1947 0.0000
vt 0.7136 0.0973 0.0000
vt 0.4381 0.1526 0.0000
vt 0.4398 0.1467 0.0000
vt 0.9307 0.1694 0.0000
vt 0.9238 0.1694 0.0000
vt 0.9238 0.0973 0.0000
vt 0.9307 0.0973 0.0000
vt 0.1307 0.0635 0.0000
vt 0.1306 0.0696 0.0000
vt 0.1292 0.0739 0.0000
vt 0.1267 0.0724 0.0000
vt 0.8887 0.1947 0.0000
vt 0.8887 0.0973 0.0000
vt 0.0498 0.2507 0.0000
vt 0.0498 0.3222 0.0000
vt 0.0001 0.3222 0.0000
vt 0.0002 0.2507 0.0000
vt 0.1827 0.0746 0.0000
vt 0.1811 0.0806 0.0000
vt 0.8800 0.1956 0.0000
vt 0.8800 0.1053 0.0000
vt 0.1945 0.0780 0.0000
vt 0.1929 0.0839 0.0000
vt 0.8537 0.2156 0.0000
vt 0.8187 0.2318 0.0000
vt 0.8187 0.0973 0.0000
vt 0.8537 0.0973 0.0000
vt 0.0993 0.3222 0.0000
vt 0.0993 0.2507 0.0000
vt 0.1490 0.2507 0.0000
vt 0.1490 0.3222 0.0000
vt 0.2384 0.0902 0.0000
vt 0.2870 0.1039 0.0000
vt 0.2853 0.1098 0.0000
vt 0.2367 0.0962 0.0000
vt 0.8099 0.2338 0.0000
vt 0.8099 0.1053 0.0000
vt 0.2972 0.1131 0.0000
vt 0.2989 0.1072 0.0000
vt 0.7877 0.2146 0.0000
vt 0.7487 0.2156 0.0000
vt 0.7487 0.0973 0.0000
vt 0.7837 0.0973 0.0000
vt 0.2478 0.3222 0.0000
vt 0.1982 0.3222 0.0000
vt 0.1982 0.2507 0.0000
vt 0.2478 0.2507 0.0000
vt 0.3375 0.1180 0.0000
vt 0.3903 0.1328 0.0000
vt 0.3886 0.1387 0.0000
vt 0.3359 0.1239 0.0000
vt 0.7399 0.2104 0.0000
vt 0.7399 0.1053 0.0000
vt 0.4010 0.1422 0.0000
vt 0.4026 0.1363 0.0000
vt 0.7837 0.0000 0.0000
vt 0.7487 0.0000 0.0000
vt 0.6786 0.0000 0.0000
vt 0.7136 0.0000 0.0000
vt 0.6723 0.0000 0.0000
vt 0.4049 0.0000 0.0000
vt 0.3994 0.0000 0.0000
vt 0.0000 0.0739 0.0000
vt 0.0055 0.0739 0.0000
vt 0.9238 0.0000 0.0000
vt 0.9307 0.0000 0.0000
vt 0.8887 0.0000 0.0000
vt 0.8187 0.0000 0.0000
vt 0.8537 0.0000 0.0000
vt 0.0621 0.3290 0.0000
vt 0.0621 0.3941 0.0000
vt 0.0497 0.3941 0.0000
vt 0.1515 0.4165 0.0000
vt 0.1004 0.4165 0.0000
vt 0.1613 0.3290 0.0000
vt 0.1627 0.4165 0.0000
vt 0.2478 0.4091 0.0000
vt 0.1921 0.4091 0.0000
vt 0.2601 0.3290 0.0000
vt 0.2602 0.4053 0.0000
vt 0.3468 0.3751 0.0000
vt 0.2973 0.3937 0.0000
vt 0.0000 0.3751 0.0000
vt 0.1353 0.1044 0.0000
vt 0.1353 0.1789 0.0000
vt 0.1353 0.2340 0.0000
vt 0.0306 0.0154 0.0000
vt 0.0306 0.0000 0.0000
vt 0.5348 0.0000 0.0000
vt 0.5348 0.0154 0.0000
vt 0.2597 0.0000 0.0000
vt 0.2597 0.0154 0.0000
vt 0.1063 0.0000 0.0000
vt 0.1063 0.0154 0.0000
vt 0.6105 0.0154 0.0000
vt 0.6105 0.0000 0.0000
vt 0.3355 0.0000 0.0000
vt 0.3355 0.0154 0.0000
vt 0.3166 0.0000 0.0000
vt 0.3166 0.0154 0.0000
vt 0.5916 0.0000 0.0000
vt 0.5916 0.0154 0.0000
vt 0.0874 0.0000 0.0000
vt 0.0874 0.0154 0.0000
vt 0.2787 0.0000 0.0000
vt 0.2787 0.0154 0.0000
vt 0.2976 0.0154 0.0000
vt 0.2976 0.0000 0.0000
vt 0.8712 0.1079 0.0000
vt 0.8737 0.2052 0.0000
vt 0.8625 0.1981 0.0000
vt 0.8625 0.1053 0.0000
vt 0.2197 0.0914 0.0000
vt 0.2037 0.0869 0.0000
vt 0.2053 0.0810 0.0000
vt 0.2213 0.0855 0.0000
vt 0.0868 0.3962 0.0000
vt 0.0709 0.4015 0.0000
vt 0.0745 0.3290 0.0000
vt 0.0870 0.3290 0.0000
vt 0.8012 0.1079 0.0000
vt 0.8012 0.2358 0.0000
vt 0.7965 0.2166 0.0000
vt 0.7924 0.1053 0.0000
vt 0.3108 0.1105 0.0000
vt 0.3256 0.1147 0.0000
vt 0.3240 0.1206 0.0000
vt 0.3091 0.1165 0.0000
vt 0.1735 0.4165 0.0000
vt 0.1736 0.3290 0.0000
vt 0.1859 0.3290 0.0000
vt 0.1796 0.4091 0.0000
vt 0.5537 0.0000 0.0000
vt 0.5537 0.0154 0.0000
vt 0.5726 0.0154 0.0000
vt 0.5726 0.0000 0.0000
vt 0.7311 0.1079 0.0000
vt 0.7311 0.2052 0.0000
vt 0.7224 0.1999 0.0000
vt 0.7224 0.1053 0.0000
vt 0.4274 0.1432 0.0000
vt 0.4257 0.1491 0.0000
vt 0.4134 0.1457 0.0000
vt 0.4150 0.1397 0.0000
vt 0.2725 0.3290 0.0000
vt 0.2849 0.3290 0.0000
vt 0.2849 0.3976 0.0000
vt 0.2725 0.4015 0.0000
vt 0.0495 0.0000 0.0000
vt 0.0495 0.0154 0.0000
vt 0.0684 0.0154 0.0000
vt 0.0684 0.0000 0.0000
# 364 texture coords

o ciudad_pCylinder32polySurface35
g ciudad_pCylinder32polySurface35
usemtl ciudad_ciudad_ciudad_lambert13SG
s off
f 1/1/1 2/2/1 3/3/1 4/4/1 
f 5/5/2 6/6/2 2/7/2 1/8/2 
f 4/9/3 7/10/3 5/11/3 1/12/3 
f 8/13/4 9/14/4 10/14/4 11/13/4 
f 12/15/5 13/16/5 14/17/5 15/18/5 
f 16/19/6 17/20/7 18/21/6 8/22/6 
f 16/23/4 8/13/4 11/13/4 19/23/4 
f 2/2/1 20/24/8 21/25/1 3/3/1 
f 2/7/9 6/6/9 22/26/10 20/27/10 
f 23/28/4 24/28/4 25/28/4 26/28/4 
f 13/29/1 12/30/1 27/31/1 28/32/1 
f 29/33/2 14/34/2 13/35/2 28/36/2 
f 30/37/1 31/38/1 28/32/8 27/31/8 
f 25/28/4 32/28/4 33/28/4 26/28/4 
f 32/39/6 25/40/6 34/41/6 35/42/6 
f 29/33/11 28/36/11 31/43/12 36/44/12 
f 30/37/1 37/45/1 38/46/1 31/38/1 
f 31/43/12 38/47/13 39/48/13 36/44/12 
f 40/49/8 41/50/8 42/51/8 43/52/8 
f 44/28/4 45/28/4 43/28/4 46/28/4 
f 44/53/6 47/54/6 45/55/7 
f 41/56/14 40/57/15 48/58/15 49/59/14 
f 50/60/1 40/49/8 43/52/8 51/61/1 
f 52/62/16 48/58/15 40/57/15 50/63/16 
f 53/64/1 54/65/1 55/66/1 56/67/1 
f 57/28/4 58/28/4 56/28/4 59/28/4 
f 59/68/7 60/69/7 57/70/6 
f 61/71/17 55/72/17 54/73/18 62/74/18 
f 63/75/8 64/76/8 54/65/1 53/64/1 
f 64/77/19 65/78/19 62/74/18 54/73/18 
f 56/67/20 58/79/1 53/64/1 
f 19/80/1 11/81/1 3/3/1 21/25/1 
f 4/4/8 3/3/8 11/81/1 10/82/1 
f 9/83/3 7/10/3 4/9/3 10/84/3 
f 24/85/5 23/86/5 12/15/5 15/18/5 
f 27/31/1 12/30/1 23/87/1 26/88/1 
f 27/31/8 26/88/1 33/89/1 30/37/1 
f 42/51/8 46/90/1 43/52/20 
f 36/91/6 39/92/7 66/93/6 35/42/6 
f 49/94/6 48/95/6 45/55/7 47/54/6 
f 48/95/6 52/96/6 67/97/6 45/55/7 
f 62/98/7 60/69/7 59/68/7 61/99/7 
f 65/100/7 68/101/7 60/69/7 62/98/7 
f 18/21/6 17/20/7 22/102/7 6/103/6 
f 36/91/6 35/42/6 34/41/6 29/104/6 
f 5/5/21 69/105/21 70/106/21 6/6/21 
f 7/10/3 71/107/3 69/108/3 5/11/3 
f 9/14/22 8/13/22 72/13/22 73/28/22 
f 74/109/5 72/110/5 8/22/5 18/21/5 
f 75/111/3 34/112/3 25/113/3 76/114/3 
f 25/28/4 24/28/4 77/28/4 76/28/4 
f 78/115/21 14/116/21 29/117/21 79/118/21 
f 77/119/5 24/85/5 15/18/5 80/120/5 
f 7/10/3 9/83/3 73/121/3 71/107/3 
f 80/120/5 15/18/5 14/17/5 78/122/5 
f 74/109/5 18/21/5 6/103/5 70/123/5 
f 79/124/3 29/125/3 34/112/3 75/111/3 
f 21/126/5 17/127/5 16/127/5 19/126/5 
f 46/128/5 42/128/5 47/129/5 44/129/5 
f 57/130/3 60/130/3 53/131/3 58/131/3 
f 33/132/3 32/133/3 35/133/3 30/132/3 
f 30/132/23 35/133/23 66/134/24 37/135/24 
f 45/136/4 67/137/4 51/138/4 43/139/4 
f 63/140/24 53/131/23 60/130/23 68/141/24 
f 81/142/4 82/143/25 83/144/25 84/145/4 
f 84/146/1 83/147/8 85/148/8 86/149/1 
f 85/150/26 87/151/26 88/152/27 86/153/27 
f 88/154/7 87/155/6 82/156/6 81/157/7 
f 89/158/1 90/159/1 91/160/1 92/161/1 
f 89/162/28 93/163/28 94/164/29 90/165/29 
f 95/166/6 94/167/6 93/168/7 96/169/7 
f 91/170/4 95/171/4 96/172/4 92/173/4 
f 97/174/1 98/175/8 99/176/8 100/177/8 
f 100/178/30 99/179/31 101/180/31 102/181/30 
f 102/182/6 101/183/6 103/184/7 104/185/6 
f 98/186/25 97/187/4 104/188/4 103/189/25 
f 83/147/8 42/51/8 41/50/8 85/148/8 
f 49/59/14 87/151/26 85/150/26 41/56/14 
f 49/94/6 47/54/6 82/156/6 87/155/6 
f 82/143/25 47/129/32 42/128/32 83/144/25 
f 84/146/1 86/149/1 38/46/1 37/45/1 
f 38/47/13 86/153/27 88/152/27 39/48/13 
f 39/92/7 88/154/7 81/157/7 66/93/6 
f 84/145/4 37/135/24 66/134/24 81/142/4 
f 51/61/1 91/160/1 90/159/1 50/60/1 
f 90/165/29 94/164/29 52/62/16 50/63/16 
f 67/97/6 52/96/6 94/167/6 95/166/6 
f 67/137/4 95/171/4 91/170/4 51/138/4 
f 55/66/1 89/158/1 92/161/1 56/67/1 
f 89/162/28 55/72/17 61/71/17 93/163/28 
f 59/68/7 96/169/7 93/168/7 61/99/7 
f 59/190/4 56/191/4 92/173/4 96/172/4 
f 100/177/8 64/76/8 63/75/8 97/174/1 
f 65/78/19 64/77/19 100/178/30 102/181/30 
f 104/185/6 68/101/7 65/100/7 102/182/6 
f 63/140/24 68/141/24 104/188/4 97/187/4 
f 98/175/8 21/25/1 20/24/8 99/176/8 
f 99/179/31 20/27/10 22/26/10 101/180/31 
f 101/183/6 22/102/7 17/20/7 103/184/7 
f 21/126/32 98/186/25 103/189/25 17/127/32 
f 105/192/6 106/193/6 107/194/6 108/195/6 
f 108/196/33 109/197/33 110/198/33 105/199/33 
f 105/200/3 110/201/3 111/202/3 106/203/3 
f 112/14/4 113/14/4 114/13/4 115/13/4 
f 116/204/5 117/205/5 118/206/5 119/207/5 
f 120/208/1 121/209/1 122/210/1 114/211/1 
f 115/13/4 114/13/4 122/23/4 123/23/4 
f 124/212/6 108/195/6 107/194/6 125/213/6 
f 124/214/34 126/215/34 109/197/9 108/196/9 
f 127/28/4 128/28/4 129/28/4 130/28/4 
f 116/216/6 131/217/6 132/218/6 117/219/6 
f 133/220/2 131/221/2 116/222/2 119/223/2 
f 134/224/7 135/225/7 132/218/6 131/217/6 
f 130/28/4 129/28/4 136/28/4 137/28/4 
f 137/226/1 138/227/8 139/228/8 130/229/1 
f 131/221/11 133/220/11 140/230/35 134/231/35 
f 141/232/6 142/233/7 135/225/7 134/224/7 
f 140/230/35 143/234/36 141/235/36 134/231/35 
f 144/236/6 145/237/6 146/238/6 147/239/6 
f 148/28/4 149/28/4 150/28/4 151/28/4 
f 152/240/1 150/241/1 149/242/1 153/243/1 
f 154/244/37 155/245/38 145/246/38 144/247/37 
f 145/237/6 156/248/7 157/249/7 146/238/6 
f 156/250/39 145/246/38 155/245/38 158/251/39 
f 159/252/6 160/253/6 161/254/6 162/255/6 
f 163/28/4 164/28/4 165/28/4 166/28/4 
f 167/256/8 168/257/8 166/258/1 165/259/1 
f 169/260/40 170/261/41 160/262/41 159/263/40 
f 171/264/6 172/265/6 161/254/6 160/253/6 
f 171/266/19 160/262/41 170/261/41 173/267/19 
f 163/268/6 162/255/6 161/254/6 164/269/6 
f 125/213/6 107/194/6 115/270/6 123/271/6 
f 112/272/6 115/270/6 107/194/6 106/193/6 
f 111/202/3 113/273/3 112/274/3 106/203/3 
f 117/205/5 128/275/5 127/276/5 118/206/5 
f 129/277/6 128/278/6 117/219/6 132/218/6 
f 132/218/6 135/225/7 136/279/6 129/277/6 
f 147/239/6 146/238/6 148/280/6 151/281/6 
f 138/227/8 174/282/1 143/283/1 140/284/8 
f 152/240/1 153/243/1 155/285/1 154/286/1 
f 155/285/1 153/243/1 175/287/8 158/288/8 
f 167/256/8 170/289/8 169/290/8 168/257/8 
f 167/256/8 176/291/1 173/292/1 170/289/8 
f 120/208/1 109/293/1 126/294/1 121/209/1 
f 139/228/8 138/227/8 140/284/8 133/295/8 
f 69/105/42 110/198/42 109/197/42 70/106/42 
f 111/202/3 110/201/3 69/108/3 71/107/3 
f 113/14/22 73/28/22 72/13/22 114/13/22 
f 114/211/5 72/110/5 74/109/5 120/208/5 
f 130/296/3 139/297/3 75/111/3 76/114/3 
f 77/28/4 127/28/4 130/28/4 76/28/4 
f 78/115/42 79/118/42 133/220/42 119/223/42 
f 118/206/5 127/276/5 77/119/5 80/120/5 
f 71/107/3 73/121/3 113/273/3 111/202/3 
f 78/122/5 119/207/5 118/206/5 80/120/5 
f 109/293/5 120/208/5 74/109/5 70/123/5 
f 139/297/3 133/298/3 79/124/3 75/111/3 
f 122/299/5 121/299/5 125/300/5 123/300/5 
f 163/301/5 166/302/5 168/302/5 162/301/5 
f 147/303/5 151/303/5 150/304/5 152/304/5 
f 164/305/3 161/305/3 167/306/3 165/306/3 
f 153/307/3 149/307/3 148/308/3 146/308/3 
f 136/309/3 135/309/3 138/310/3 137/310/3 
f 138/310/23 135/309/23 142/311/43 174/312/43 
f 157/313/24 175/314/24 153/307/23 146/308/23 
f 167/306/23 161/305/23 172/315/43 176/316/43 
f 177/317/25 178/318/25 179/319/4 180/320/4 
f 180/321/7 181/322/7 182/323/7 177/324/7 
f 182/325/44 181/326/45 183/327/45 184/328/44 
f 184/329/8 183/330/8 179/331/8 178/332/8 
f 185/333/7 186/334/7 187/335/6 188/336/6 
f 189/337/46 190/338/47 187/339/47 186/340/46 
f 189/341/8 191/342/8 192/343/1 190/344/1 
f 188/345/48 192/346/48 191/347/4 185/348/4 
f 193/349/6 194/350/6 195/351/7 196/352/7 
f 197/353/31 195/354/31 194/355/30 198/356/30 
f 199/357/1 200/358/8 197/359/8 198/360/1 
f 196/361/25 200/362/25 199/363/4 193/364/4 
f 144/236/6 147/239/6 177/324/7 182/323/7 
f 184/328/44 154/244/37 144/247/37 182/325/44 
f 184/329/8 178/332/8 152/240/1 154/286/1 
f 147/303/32 152/304/32 178/318/25 177/317/25 
f 181/322/7 180/321/7 142/233/7 141/232/6 
f 141/235/36 143/234/36 183/327/45 181/326/45 
f 179/331/8 183/330/8 143/283/1 174/282/1 
f 174/312/43 142/311/43 180/320/4 179/319/4 
f 185/333/7 157/249/7 156/248/7 186/334/7 
f 158/251/39 189/337/46 186/340/46 156/250/39 
f 191/342/8 189/341/8 158/288/8 175/287/8 
f 191/347/4 175/314/24 157/313/24 185/348/4 
f 187/335/6 159/252/6 162/255/6 188/336/6 
f 159/263/40 187/339/47 190/338/47 169/260/40 
f 168/257/8 169/290/8 190/344/1 192/343/1 
f 192/346/48 188/345/48 162/301/32 168/302/32 
f 193/349/6 172/265/6 171/264/6 194/350/6 
f 198/356/30 194/355/30 171/266/19 173/267/19 
f 176/291/1 199/357/1 198/360/1 173/292/1 
f 199/363/4 176/316/43 172/315/43 193/364/4 
f 196/352/7 195/351/7 124/212/6 125/213/6 
f 126/215/34 124/214/34 195/354/31 197/353/31 
f 121/209/1 126/294/1 197/359/8 200/358/8 
f 196/361/25 125/300/32 121/299/32 200/362/25 
# 198 polygons - 4 triangles

